<svg xmlns="http://www.w3.org/2000/svg" fill-rule="evenodd" clip-rule="evenodd" image-rendering="optimizeQuality" shape-rendering="geometricPrecision" text-rendering="geometricPrecision" viewBox="0 0 512 512"><path d="M40.5-.5h430c21.3 6 35 19.7 41 41v430c-6 21.3-19.7 35-41 41h-430c-21.3-6-35-19.7-41-41v-430c6-21.3 19.7-35 41-41Z"/><path fill="#fdfdfd" d="M139.5 127.5c17.3-.3 34.7 0 52 1 29.1 85 57.5 170.4 85 256-17.7.3-35.3 0-53-1-8-23.2-15.2-46.5-22-70h-73l-22 71h-52c28.1-85.7 56.5-171.4 85-257ZM380.5 383.5h-50c.3-32.8 0-65.5-1-98-25-52.4-50.4-104.8-76-157 18.2-1.3 36.4-1.3 54.5 0 15.2 33.1 29.9 66.4 44 100 1.6 3.8 2.6 7.8 3 12 15.3-37.6 31.5-75 48.5-112 18-1.3 36-1.3 54 0l-76.5 157c-.5 32.7-.7 65.3-.5 98Z"/><path fill="#050505" d="M188.5 268.5a276.7 276.7 0 0 1-47 0c9.1-27 17-54.3 23.5-82 6.9 27.6 14.7 55 23.5 82Z"/><path fill="#626262" d="M141.5 268.5c15.7 1.3 31.3 1.3 47 0 .5 0 .9.4 1 1a300.7 300.7 0 0 1-49 0c.1-.6.5-1 1-1Z"/><path fill="#7f7f7f" d="M329.5 285.5c1 32.5 1.3 65.2 1 98h50c-16.8 1-33.8 1.3-51 1v-99Z"/></svg>
